<svg width="48" height="48" viewBox="0 0 48 48" fill="none" xmlns="http://www.w3.org/2000/svg">
<path d="M14 14H15.74C16.82 14 17.67 14.93 17.58 16L16.75 25.96C16.61 27.59 17.9 28.99 19.54 28.99H30.19C31.63 28.99 32.89 27.81 33 26.38L33.54 18.88C33.66 17.22 32.4 15.87 30.73 15.87H17.82" stroke="white" stroke-width="1.5" stroke-miterlimit="10" stroke-linecap="round" stroke-linejoin="round"/>
<path d="M28.25 34C28.9404 34 29.5 33.4404 29.5 32.75C29.5 32.0596 28.9404 31.5 28.25 31.5C27.5596 31.5 27 32.0596 27 32.75C27 33.4404 27.5596 34 28.25 34Z" stroke="white" stroke-width="1.5" stroke-miterlimit="10" stroke-linecap="round" stroke-linejoin="round"/>
<path d="M20.25 34C20.9404 34 21.5 33.4404 21.5 32.75C21.5 32.0596 20.9404 31.5 20.25 31.5C19.5596 31.5 19 32.0596 19 32.75C19 33.4404 19.5596 34 20.25 34Z" stroke="white" stroke-width="1.5" stroke-miterlimit="10" stroke-linecap="round" stroke-linejoin="round"/>
<path d="M21 20H33" stroke="white" stroke-width="1.5" stroke-miterlimit="10" stroke-linecap="round" stroke-linejoin="round"/>
<rect x="24.5" y="8.5" width="15" height="15" rx="7.5" fill="#FF3B30"/>
<rect x="24.5" y="8.5" width="15" height="15" rx="7.5" stroke="white"/>
<path d="M31.71 20.15C31.22 20.15 30.7867 20.0433 30.41 19.83C30.0333 19.6133 29.7367 19.3167 29.52 18.94C29.3067 18.5633 29.2 18.13 29.2 17.64V15.16C29.2 14.67 29.3067 14.2367 29.52 13.86C29.7367 13.4833 30.0333 13.1883 30.41 12.975C30.7867 12.7583 31.22 12.65 31.71 12.65C32.2 12.65 32.6333 12.7583 33.01 12.975C33.3867 13.1883 33.6817 13.4833 33.895 13.86C34.1117 14.2367 34.22 14.67 34.22 15.16V17.64C34.22 18.13 34.1117 18.5633 33.895 18.94C33.6817 19.3167 33.3867 19.6133 33.01 19.83C32.6333 20.0433 32.2 20.15 31.71 20.15ZM31.71 19.15C31.9767 19.15 32.2183 19.0867 32.435 18.96C32.655 18.83 32.83 18.6567 32.96 18.44C33.09 18.22 33.155 17.975 33.155 17.705V15.085C33.155 14.8183 33.09 14.5767 32.96 14.36C32.83 14.14 32.655 13.9667 32.435 13.84C32.2183 13.71 31.9767 13.645 31.71 13.645C31.4433 13.645 31.2 13.71 30.98 13.84C30.7633 13.9667 30.59 14.14 30.46 14.36C30.33 14.5767 30.265 14.8183 30.265 15.085V17.705C30.265 17.975 30.33 18.22 30.46 18.44C30.59 18.6567 30.7633 18.83 30.98 18.96C31.2 19.0867 31.4433 19.15 31.71 19.15Z" fill="white"/>
</svg>
