<svg width="32" height="32" viewBox="0 0 32 32" fill="none" xmlns="http://www.w3.org/2000/svg">
<g filter="url(#filter0_d_1_684)">
<path d="M16.0001 13.5534C15.3636 13.5534 14.7531 13.3017 14.303 12.8538C13.853 12.4059 13.6001 11.7984 13.6001 11.165V6.38834C13.6001 5.75491 13.853 5.14743 14.303 4.69953C14.7531 4.25163 15.3636 4 16.0001 4C16.6366 4 17.2471 4.25163 17.6972 4.69953C18.1472 5.14743 18.4001 5.75491 18.4001 6.38834V11.165C18.4001 11.7984 18.1472 12.4059 17.6972 12.8538C17.2471 13.3017 16.6366 13.5534 16.0001 13.5534Z" fill="#B8F1F2"/>
<path d="M11.2 18.3299H6.4C5.76348 18.3299 5.15303 18.0783 4.70294 17.6304C4.25286 17.1825 4 16.575 4 15.9416C4 15.3081 4.25286 14.7007 4.70294 14.2528C5.15303 13.8049 5.76348 13.5532 6.4 13.5532H11.2C11.8365 13.5532 12.447 13.8049 12.8971 14.2528C13.3471 14.7007 13.6 15.3081 13.6 15.9416C13.6 16.575 13.3471 17.1825 12.8971 17.6304C12.447 18.0783 11.8365 18.3299 11.2 18.3299Z" fill="#B8F1F2"/>
<path d="M16.0001 27.8834C15.3636 27.8834 14.7531 27.6318 14.303 27.1839C13.853 26.736 13.6001 26.1285 13.6001 25.4951V20.7184C13.6001 20.085 13.853 19.4775 14.303 19.0296C14.7531 18.5817 15.3636 18.3301 16.0001 18.3301C16.6366 18.3301 17.2471 18.5817 17.6972 19.0296C18.1472 19.4775 18.4001 20.085 18.4001 20.7184V25.4951C18.4001 26.1285 18.1472 26.736 17.6972 27.1839C17.2471 27.6318 16.6366 27.8834 16.0001 27.8834Z" fill="#B8F1F2"/>
<path d="M25.5999 18.3299H20.7999C20.1634 18.3299 19.5529 18.0783 19.1028 17.6304C18.6528 17.1825 18.3999 16.575 18.3999 15.9416C18.3999 15.3081 18.6528 14.7007 19.1028 14.2528C19.5529 13.8049 20.1634 13.5532 20.7999 13.5532H25.5999C26.2364 13.5532 26.8469 13.8049 27.297 14.2528C27.747 14.7007 27.9999 15.3081 27.9999 15.9416C27.9999 16.575 27.747 17.1825 27.297 17.6304C26.8469 18.0783 26.2364 18.3299 25.5999 18.3299Z" fill="#B8F1F2"/>
</g>
<defs>
<filter id="filter0_d_1_684" x="0.7375" y="0.7375" width="31.2499" height="31.1333" filterUnits="userSpaceOnUse" color-interpolation-filters="sRGB">
<feFlood flood-opacity="0" result="BackgroundImageFix"/>
<feColorMatrix in="SourceAlpha" type="matrix" values="0 0 0 0 0 0 0 0 0 0 0 0 0 0 0 0 0 0 127 0" result="hardAlpha"/>
<feOffset dx="0.3625" dy="0.3625"/>
<feGaussianBlur stdDeviation="1.8125"/>
<feComposite in2="hardAlpha" operator="out"/>
<feColorMatrix type="matrix" values="0 0 0 0 1 0 0 0 0 1 0 0 0 0 1 0 0 0 1 0"/>
<feBlend mode="normal" in2="BackgroundImageFix" result="effect1_dropShadow_1_684"/>
<feBlend mode="normal" in="SourceGraphic" in2="effect1_dropShadow_1_684" result="shape"/>
</filter>
</defs>
</svg>
